<?xml version="1.0" standalone="no"?> 
<!DOCTYPE svg PUBLIC "-//W3C//DTD SVG 1.1//EN" "http://www.w3.org/Graphics/SVG/1.1/DTD/svg11.dtd" >
<svg xmlns="http://www.w3.org/2000/svg">
<defs>
  <font id="icomoon" horiz-adv-x="88">
    <font-face font-family="icomoon"
      units-per-em="1001" ascent="1001"
      descent="0" />
    <missing-glyph horiz-adv-x="0" />
    <glyph glyph-name="arrow"
      unicode="&#xEA01;"
      horiz-adv-x="1001" d=" M330.8930625 15.26525C330.8930625 15.26525 369.994625 57.1195625 424.298875 115.240125C547.2341875 246.8716250000001 747.747 461.7738125 747.747 461.7738125C757.6318749999999 472.22175 762.0738124999999 486.1731875 761.4481875 499.9369375C762.0738124999999 513.7006875 755.9426875 525.9629375 746.1829375 536.410875L329.2664375 982.9194375C310.7479375 1002.8143125 282.282 1004.5035 263.7635 984.6711875C263.7635 984.6711875 253.5658125 945.569625 290.9781875 905.529625L673.4853125000001 499.74925L290.9156250000001 94.0314375C253.5658125000001 53.9914375 263.7009375000001 15.26525 263.7009375000001 15.26525C282.282 -4.5670625 312.3745625 -4.5670625 330.8930625 15.26525z" />
    <glyph glyph-name="checks"
      unicode="&#xEA02;"
      horiz-adv-x="1001" d=" M500.5625625 869.3685C704.2035 869.3685 869.3059375 704.2035000000001 869.3059375 500.5S704.2035 131.6315 500.5625625 131.6315C296.8590625 131.6315 131.6940625 296.7965000000001 131.6940625 500.5S296.8590625 869.3685 500.5625625 869.3685z M242.367125 869.3685H758.6954375C819.7564375000001 869.3685 869.3059375000001 819.819 869.3059375000001 758.758V242.5548125000001C869.3059375000001 181.3686875000001 819.7564375000001 131.88175 758.6954375 131.88175H242.367125C181.306125 131.88175 131.756625 181.3686875000001 131.756625 242.5548125000001V758.6954375C131.6940625 819.819 181.2435625 869.3685 242.367125 869.3685z" />
    <glyph glyph-name="cross"
      unicode="&#xEA03;"
      horiz-adv-x="1001" d=" M999.0605625 922.17125L922.1712499999998 999.0605625L500.5 577.3893125L78.8913125 999.0605625L1.9394375 922.17125L423.6106875 500.5L2.002 78.8913124999999L78.8913125 2.002L500.5 423.6106875000001L922.1086875 2.002L998.998 78.8913124999999L577.3893125 500.5L999.0605625 922.17125z" />
    <glyph glyph-name="delet"
      unicode="&#xEA04;"
      horiz-adv-x="1001" d=" M263.888625 700.7L300.3 737.111375C318.5056875 755.2545 354.9170625 755.2545 373.12275 737.111375L500.5 609.734125L627.87725 737.1739375C646.0829375 755.3170625 682.4943125 755.3170625 700.6999999999999 737.1739375L737.0488125 700.7C755.2545 682.4943125 755.2545 646.0829375000001 737.0488125 627.87725L609.6715624999999 500.5L737.0488124999999 373.12275C755.2544999999999 354.9170625000001 755.2544999999999 318.5056875 737.0488124999999 300.3625625L700.6999999999999 263.9511875C682.4943125 245.7455 646.0829375 245.7455 627.87725 263.9511875L500.5 391.3284375000001L373.1227500000001 263.9511875000001C354.9170625 245.7455000000001 318.5056875 245.7455000000001 300.3000000000001 263.9511875000001L263.8886250000001 300.3625625000001C245.7455000000001 318.5056875 245.7455000000001 354.9170625000002 263.8886250000001 373.1227500000001L391.3284375 500.5L263.888625 627.9398125C245.7455 646.1455000000001 245.7455 682.4943125 263.888625 700.7zM0 500.5C0 224.098875 224.098875 0 500.5 0C776.901125 0 1001 224.098875 1001 500.5C1001 776.901125 776.901125 1001 500.5 1001C224.098875 1001 0 776.901125 0 500.5z" />
    <glyph glyph-name="notice"
      unicode="&#xEA05;"
      horiz-adv-x="1001" d=" M500.5 1001C224.098875 1001 0 776.901125 0 500.5C0 224.098875 224.098875 0 500.5 0C776.9636875 0 1001 224.098875 1001 500.5C1001 776.901125 776.9636875 1001 500.5 1001zM406.65625 813.3125H594.34375V688.1875H406.65625V813.3125zM625.625 218.96875H375.375V281.53125H469.21875V531.78125H375.375V625.625H594.34375V281.53125H625.625V218.96875z" />
    <glyph glyph-name="radius"
      unicode="&#xEA06;"
      horiz-adv-x="1001" d=" M500.5625625 869.3685C704.2035 869.3685 869.3059375 704.2035000000001 869.3059375 500.5S704.2035 131.6315 500.5625625 131.6315C296.8590625 131.6315 131.6940625 296.7965000000001 131.6940625 500.5S296.8590625 869.3685 500.5625625 869.3685z" />
    <glyph glyph-name="refresh"
      unicode="&#xEA07;"
      horiz-adv-x="1001" d=" M786.3480625000001 760.0092500000001C726.851125 847.4090625 630.4423125000001 899.273375 499.9369375000001 899.273375C269.3941250000001 899.273375 103.728625 739.363625 103.728625 503.0650625C103.728625 266.7039375 269.3941250000001 106.85675 499.9369375000001 106.85675C703.6404375 106.85675 825.5747500000001 231.7940625 851.2879375 423.8609375H945.2568125C908.4075 199.0738750000001 718.1549375 27.6526250000001 488.3003125 27.6526250000001C232.106875 27.6526250000001 24.399375 240.5528125000001 24.399375 503.127625S243.6809375 978.602625 499.8743749999999 978.602625C644.6439999999999 978.602625 769.3936249999999 909.909 851.2253749999999 803.427625L935.7473124999998 859.733875V582.3943125L698.0098124999997 701.2630624999999L786.3480625000001 760.0092500000001z" />
    <glyph glyph-name="selected"
      unicode="&#xEA08;"
      horiz-adv-x="1001" d=" M502.3143125 833.6453125C319.319 833.6453125 170.92075 685.3096250000001 170.92075 502.25175S319.2564375 170.8581875000001 502.3143125 170.8581875000001S833.7078750000001 319.1938750000002 833.7078750000001 502.2517500000001S685.309625 833.6453125 502.3143125 833.6453125zM502.3143125 980.9174375C237.98775 980.9174375 23.7111875 766.640875 23.7111875 502.3143125S237.98775 23.648625 502.3143125 23.648625S980.98 237.9251875000001 980.98 502.3143125S766.6408749999999 980.9174375 502.3143125 980.9174375zM502.3143125 78.8913124999999C268.4556875 78.8913124999999 78.8913125 268.4556875 78.8913125 502.3143124999999S268.4556875 925.7373125 502.3143125 925.7373125S925.7373125 736.1729375 925.7373125 502.3143124999999C925.67475 268.4556875000001 736.110375 78.8913124999999 502.3143125 78.8913124999999z" />
    <glyph glyph-name="success"
      unicode="&#xEA09;"
      horiz-adv-x="1001" d=" M500.5 1001C224.098875 1001 0 776.901125 0 500.5C0 223.97375 224.098875 0 500.5 0C776.9636875 0 1001 223.97375 1001 500.5C1001 776.901125 776.9636875 1001 500.5 1001zM500.5 60.0600000000001C257.257 60.0600000000001 60.06 257.1944375000001 60.06 500.5000000000001C60.06 743.743 257.257 940.94 500.5 940.94C743.7429999999999 940.94 940.94 743.743 940.94 500.5000000000001C940.94 257.1944375000001 743.7429999999999 60.0600000000001 500.5 60.0600000000001zM410.41 420.4200000000001L312.8125 500.5L250.25 437.9375L413.3504375 281.53125L750.75 656.90625L700.6999999999999 690.69L410.41 420.4200000000001z" />
    <glyph glyph-name="tick"
      unicode="&#xEA0A;"
      horiz-adv-x="1001" d=" M187.6875 282.3445625L250.25 218.218L375.375 90.0274375L1001 795.7324375L875.875 924.1106875L384.4465625 465.5901250000001L187.6875 667.4167500000001L0 474.9119374999999L187.6875 282.3445625z" />
    <glyph glyph-name="unselected"
      unicode="&#xEA0B;"
      horiz-adv-x="1001" d=" M503.6906875 978.5400625C238.98875 978.5400625 24.4619375 763.9506875 24.4619375 499.3113125S239.0513125 20.0825625 503.6906875 20.0825625S982.9194375 234.6719375 982.9194375 499.3113125C982.9194375 763.9506875 768.3300625 978.5400625 503.6906875 978.5400625zM503.6906875 75.32525C269.5818125 75.32525 79.7671875 265.139875 79.7671875 499.24875S269.5818125 923.17225 503.6906875 923.17225S927.6141875 733.3576250000001 927.6141875 499.24875S737.7995625 75.32525 503.6906875 75.32525z" />
    <glyph glyph-name="view"
      unicode="&#xEA0C;"
      horiz-adv-x="1001" d=" M24.4619375 538.4754375C24.4619375 598.723125 238.112875 839.839 501.6261250000001 839.839S978.7903125 598.7856875 978.7903125 538.4754375C978.7903125 478.1651875 765.139375 237.111875 501.6261250000001 237.111875S24.4619375 478.1651875 24.4619375 538.4754375M501.5635625 779.52875C369.8069375 779.52875 263.01275 671.6084375 263.01275 538.4754375C263.01275 405.3424375 369.8069375 297.422125 501.5635625 297.422125C633.3201875 297.422125 740.114375 405.3424375 740.114375 538.4754375C740.1769375 671.6084375 633.3201875 779.52875 501.5635625 779.52875zM501.5635625 417.9175C435.68525 417.9175 382.256875 471.9089375 382.256875 538.4754375C382.256875 605.0419374999999 435.68525 659.033375 501.5635625 659.033375C567.441875 659.033375 620.8702499999999 605.0419374999999 620.8702499999999 538.4754375C620.8702499999999 471.9089375 567.441875 417.9175 501.5635625 417.9175z" />
    <glyph glyph-name="warn"
      unicode="&#xEA0D;"
      horiz-adv-x="1001" d=" M470.47 370.3074375H530.53V750.75H470.47V370.3074375zM500.5 1001C224.098875 1001 0 776.901125 0 500.5C0 224.098875 224.098875 0 500.5 0C776.901125 0 1001 224.098875 1001 500.5C1001 776.901125 776.901125 1001 500.5 1001zM500.5 60.0600000000001C257.257 60.0600000000001 60.06 257.2570000000001 60.06 500.5000000000001C60.06 743.743 257.257 940.94 500.5 940.94C743.7429999999999 940.94 940.94 743.743 940.94 500.5000000000001C940.94 257.2570000000001 743.7429999999999 60.0600000000001 500.5 60.0600000000001zM470.47 250.25H530.53V310.3100000000001H470.47V250.25z" />
    <glyph glyph-name="card"
      unicode="&#xEA11;"
      horiz-adv-x="1001" d=" M860.60975 808.682875H105.1675625C71.946875 808.682875 44.9824375 778.903125 44.9824375 742.1789375000001V312.06175C44.9824375 275.3375625 71.946875 245.5578125 105.1675625 245.5578125H860.60975C893.8304375 245.5578125 920.794875 275.3375625 920.794875 312.06175V742.1789375000001C920.8574375 778.903125 893.893 808.682875 860.60975 808.682875zM889.5761875 336.9616249999999C889.5761875 303.7409374999999 862.236375 276.8390625 828.57775 276.8390625H137.262125C103.5409375 276.8390625 76.2636875 303.7409374999999 76.2636875 336.9616249999999V717.2790625C76.2636875 750.49975 103.6035 777.401625 137.262125 777.401625H828.5151874999999C862.2363749999998 777.401625 889.5136249999999 750.49975 889.5136249999999 717.2790625V336.9616249999999zM890.0766875 553.8032499999999H76.7641875V678.9282499999999H890.0766875V553.8032499999999z" />
    <glyph glyph-name="forget"
      unicode="&#xEA12;"
      horiz-adv-x="1001" d=" M500.5 1001C224.098875 1001 0 776.901125 0 500.5S224.098875 0 500.5 0S1001 224.098875 1001 500.5S776.901125 1001 500.5 1001zM500.5 60.0600000000001C257.257 60.0600000000001 60.06 257.2570000000001 60.06 500.5000000000001S257.257 940.94 500.5 940.94S940.94 743.7429999999999 940.94 500.5S743.7429999999999 60.0600000000001 500.5 60.0600000000001zM530.53 280.28C530.53 263.7009375 517.0790625000001 250.25 500.5 250.25S470.47 263.7009375 470.47 280.28S483.9209375 310.3100000000001 500.5 310.3100000000001S530.53 296.8590625 530.53 280.28zM558.1200625 482.2943124999999C598.723125 532.406875 656.530875 561.5609999999999 648.522875 658.282625S543.1050624999999 776.400625 498.498 774.148375S380.004625 748.6854375 351.9140625 636.260625C348.9110625 621.4958750000001 357.9826250000001 604.5414375 375.500125 602.9148124999999C407.15675 599.974375 407.532125 640.4523125 424.6116875 673.6104375C446.1331875 716.090375 507.131625 725.7875624999999 541.29075 713.838125C601.601 693.567875 613.86325 627.8146875 569.3813124999999 571.6961249999999C516.76625 514.3263125000001 506.0680625000001 521.145625 483.483 454.8919375C464.9019375 400.4625625000001 468.2803125 356.9190625 498.498 356.9190625C523.397875 356.9190625 528.5905625 373.4981250000001 527.902375 405.7178124999999C527.2141875 437.8749375 546.4834374999999 467.9049375 558.1200625 482.2943124999999z" />
    <glyph glyph-name="search"
      unicode="&#xEA13;"
      horiz-adv-x="1001" d=" M440.064625 928.552625C626.37575 928.552625 813.06225 766.5783125 813.06225 547.6095625S631.1930624999999 177.9903125 436.561125 177.9903125C247.7475 177.9903125 62.3122499999999 333.958625 62.3122499999999 552.927375S248.9361875 928.552625 440.064625 928.552625zM437.9375 1001C196.070875 1001 0 802.8645625 0 558.4954375S196.070875 115.990875 437.9375 115.990875S875.875 314.1263125 875.875 558.4954375C876.000125 802.8645625 679.804125 1001 437.9375 1001zM1167.166 443.818375M985.5470625 12.5124999999999C974.848875 1.8143125 958.4575 1.001 948.822875 10.5730624999999L730.3546249999999 229.0413124999999C742.6168749999999 240.0523124999999 759.50875 256.0683125 768.51775 268.2054374999998L987.4865 49.2366874999998C997.0585625 39.6020625 996.24525 23.2106875000001 985.5470625 12.5124999999999L985.5470625 12.5124999999999z" />
    <glyph glyph-name="broadcast"
      unicode="&#xEA14;"
      horiz-adv-x="1001" d=" M555.9164722222222 774.4959444444444C555.3325555555555 797.2130833333333 540.54 818.5121388888889 517.4613888888889 828.4665277777777C494.6608333333334 838.4765277777777 468.6904444444444 835.2510833333333 449.1153333333334 819.819L259.0643611111111 650.8724444444445H168.0567777777778C136.88675 650.8446388888889 111.2222222222222 626.2089166666667 111.2222222222222 595.1501111111111V405.3215833333333C111.2222222222222 374.3183888888889 136.88675 349.654861111111 168.0567777777778 349.654861111111L259.50925 349.7382777777778L448.4201944444445 181.7927222222222C469.1353333333333 166.0269722222222 493.9935 162.8571388888888 516.1823333333334 171.977361111111C538.4267777777778 181.0697777777778 553.6086111111111 200.9785555555554 555.8886666666667 225.8645277777777C556.0276944444445 227.8387222222222 556.1111111111111 229.3958333333333 556.1111111111111 231.2031944444444V770.4085277777777C556.1111111111111 771.0480555555555 556.1111111111111 771.0480555555555 556.0833055555555 772.4939444444444C556.0276944444445 773.3837222222222 556.0276944444445 773.3837222222222 555.9164722222222 774.4959444444444zM500.5 231.2309999999999C500.5 231.2588055555556 500.5 231.1475833333333 500.3609722222223 229.0899722222221C500.1663333333333 227.032361111111 498.4701944444445 224.8079166666665 495.1057222222223 223.4454444444443C491.0183055555556 221.777111111111 486.9586944444445 222.277611111111 483.6776388888889 224.7523055555555L292.4866388888889 394.8110833333333C284.8957222222222 401.1229444444444 276.6096666666667 404.2927777777777 267.9899444444444 405.0435277777777C266.5440555555556 405.210361111111 264.6532777777778 405.3493888888887 262.4566388888889 405.3493888888887L168.0289722222222 405.2659722222221C167.1391944444445 405.2659722222222 166.8333333333334 405.5440277777778 166.8333333333334 405.3215833333334V595.1501111111111C166.8333333333334 594.9554722222223 167.1113888888889 595.2335277777778 168.0567777777778 595.2335277777778C168.0567777777778 595.2335277777778 262.4844444444444 595.2613333333334 262.7625 595.2613333333334C271.2153888888889 594.5105833333334 281.9483333333333 597.6804166666666 290.54025 604.4649722222223L484.8454722222223 777.1930833333333C486.9586944444445 778.8058055555556 491.0739166666667 779.3063055555556 495.3281666666667 777.4433333333334C498.8872777777778 775.9140277777777 500.3887777777778 773.7451944444445 500.5 770.2695V231.2309999999999z M859.9424166666668 668.0006666666666C835.0286388888888 713.156888888889 799.6043611111111 753.7808055555555 756.8950277777778 786.3133055555555C744.2156944444445 796.0174444444444 725.5303611111111 794.0710555555555 715.4369444444445 781.8366111111111C705.2879166666668 769.7133888888889 707.4011388888889 751.9456388888889 720.1360833333334 742.2693055555555C799.6877777777779 681.93125 844.7327777777779 594.3715555555556 844.7327777777779 500.0273055555555C844.7327777777779 406.2669722222222 800.1604722222223 319.0409444444445 721.3317222222223 258.7585000000001C708.6801944444446 248.9153333333334 706.6225833333335 231.1753888888889 716.910638888889 219.0799722222222C726.865027777778 206.9845555555556 745.6059722222224 205.0659722222222 758.201888888889 214.6866944444444C800.5775555555557 247.2191944444444 835.723777777778 287.8153055555555 860.3873055555557 332.8046944444444C889.0548333333335 384.9679166666667 903.65275 441.3019722222223 903.65275 499.9716944444444C903.6805555555557 559.1697222222222 888.9714166666668 615.7540277777778 859.9424166666668 668.0006666666666z M764.6527777777778 499.8882777777778C764.6527777777778 558.3633611111111 730.6743888888889 613.0290833333333 673.0612777777778 648.6758055555556C659.9648611111111 656.6281944444445 641.7800277777778 654.4315555555556 631.7978333333334 643.1424999999999C621.315138888889 631.0470833333334 624.6518055555556 613.8910555555556 638.2209166666668 605.4381666666667C680.4297500000001 579.3009444444444 704.5649722222223 540.54 704.5649722222223 499.9160833333333C704.5649722222223 459.9873055555555 680.9580555555557 421.5044166666667 639.8614444444445 395.4228055555556C626.37575 386.8308888888888 623.317138888889 369.7026666666666 633.7998333333334 357.6906666666667C644.1713055555556 346.2903888888889 662.5507777777779 344.3718055555555 675.4525555555556 352.6300555555556C731.5363611111112 388.2767777777778 764.6527777777778 442.3863888888889 764.6527777777778 499.8882777777778z" />
    <glyph glyph-name="life"
      unicode="&#xEA21;"
      horiz-adv-x="1001" d=" M968.4093023255812 991.6883720930226L947.4581395348833 996.3441860465106C945.1302325581394 996.3441860465106 914.8674418604649 1000.9999999999986 868.309302325581 1000.9999999999986C814.7674418604645 1000.9999999999986 735.6186046511626 994.0162790697658 661.1255813953484 959.0976744186032C602.9279069767437 933.4906976744164 551.7139534883719 870.6372093023238 509.8116279069762 775.1930232558129C502.8279069767434 758.8976744186039 495.8441860465113 744.9302325581382 491.1883720930225 730.9627906976739C481.8767441860456 758.8976744186039 470.2372093023247 786.8325581395338 458.5976744186044 810.1116279069756C432.9906976744179 856.6697674418594 400.3999999999998 891.5883720930221 358.4976744186041 919.5232558139522C258.3976744186039 984.7046511627896 162.953488372093 998.672093023254 100.0999999999989 998.672093023254C53.5418604651152 998.672093023254 23.2790697674405 991.6883720930211 23.2790697674405 991.6883720930211L2.3279069767434 987.032558139533L-1.3e-12 966.081395348836C-1.3e-12 963.7534883720912 -4.6558139534894 910.211627906976 6.9837209302315 840.3744186046504C13.9674418604643 798.4720930232547 25.6069767441853 761.2255813953486 41.9023255813943 728.6348837209291C62.8534883720914 686.7325581395336 88.460465116278 649.4860465116274 123.3790697674408 621.551162790696C172.2651162790693 581.9767441860452 221.1511627906964 551.7139534883705 274.6930232558129 533.0906976744168C316.5953488372085 519.1232558139511 358.4976744186041 512.1395348837195 400.3999999999985 512.1395348837195C426.006976744185 512.1395348837195 449.2860465116269 514.4674418604643 465.5813953488359 519.1232558139525V444.6302325581387H162.9534883720917V95.4441860465108C162.9534883720917 41.9023255813943 202.5279069767426 2.3279069767434 258.3976744186039 2.3279069767434H772.8651162790688C826.4069767441854 2.3279069767434 840.3744186046504 41.9023255813943 840.3744186046504 95.4441860465108V444.6302325581387H537.7465116279062V602.9279069767437C577.3209302325571 595.9441860465108 600.599999999999 593.6162790697674 635.5186046511617 593.6162790697674C747.258139534883 593.6162790697674 835.7186046511616 626.2069767441856 893.9162790697662 693.7162790697678C991.6883720930218 805.4558139534889 973.0651162790688 966.0813953488372 973.0651162790688 973.06511627907L968.4093023255812 991.6883720930226zM728.6348837209305 69.8372093023256H270.0372093023261C249.086046511629 69.8372093023256 230.4627906976752 86.1325581395346 230.4627906976752 109.4116279069765V374.7930232558132H765.881395348838V109.4116279069765C768.2093023255815 88.460465116278 749.5860465116276 69.8372093023256 728.6348837209305 69.8372093023256zM400.3999999999998 568.0093023255808C318.9232558139533 568.0093023255808 237.4465116279067 600.599999999999 162.953488372093 663.453488372093C137.3465116279065 686.7325581395348 114.0674418604646 714.6674418604648 97.7720930232556 749.5860465116276C83.8046511627899 777.5209302325576 74.4930232558137 810.111627906977 67.5093023255809 847.3581395348832S60.525581395348 917.1953488372088 60.525581395348 938.146511627906C72.165116279069 940.4744186046506 86.1325581395346 940.4744186046506 102.4279069767437 940.4744186046506C158.2976744186036 940.4744186046506 242.1023255813949 928.8348837209298 328.2348837209294 870.6372093023251C360.8255813953475 849.6860465116279 388.7604651162788 819.4232558139532 409.711627906976 782.1767441860457C426.006976744185 751.913953488371 439.9744186046506 716.9953488372082 446.9581395348835 677.4209302325573C456.2697674418597 633.1906976744183 458.5976744186044 595.9441860465108 458.5976744186044 572.665116279069C442.3023255813954 570.3372093023256 423.6790697674416 568.0093023255808 400.3999999999998 568.0093023255808L400.3999999999998 568.0093023255808zM635.5186046511631 649.4860465116274C602.9279069767443 649.4860465116274 568.0093023255815 651.8139534883721 530.7627906976747 658.7976744186036C537.7465116279075 682.0767441860455 549.3860465116285 716.9953488372082 565.6813953488374 751.913953488371C600.6000000000003 833.3906976744175 644.83023255814 886.9325581395341 686.732558139535 905.5558139534878C751.9139534883724 935.8186046511626 821.751162790698 942.8023255813954 870.6372093023257 942.8023255813954C889.2604651162795 942.8023255813954 903.2279069767446 942.8023255813954 917.1953488372096 940.4744186046506C917.1953488372096 896.2441860465117 912.5395348837214 798.4720930232547 849.686046511628 728.6348837209291C800.8000000000002 677.4209302325573 728.6348837209305 649.4860465116274 635.5186046511631 649.4860465116274z" />
    <glyph glyph-name="shopping"
      unicode="&#xEA22;"
      horiz-adv-x="1001" d=" M710.0116279069767 628.5348837209302H779.8488372093024C793.8162790697673 628.5348837209302 805.4558139534882 619.223255813954 807.7837209302323 605.2558139534883L893.9162790697669 93.1162790697674C896.244186046511 81.4767441860465 886.9325581395341 69.8372093023256 875.2930232558132 69.8372093023256H130.3627906976736C116.395348837208 69.8372093023256 109.4116279069765 79.1488372093018 111.7395348837199 93.1162790697674L197.8720930232545 605.2558139534883C200.1999999999992 616.8953488372092 211.8395348837202 628.5348837209302 225.8069767441845 628.5348837209302H295.6441860465101V516.7953488372091C281.6767441860444 505.1558139534881 272.3651162790682 486.5325581395343 272.3651162790682 465.5813953488372C272.3651162790682 426.0069767441863 302.6279069767429 395.7441860465116 342.2023255813938 395.7441860465116S412.0395348837194 426.0069767441863 412.0395348837194 465.5813953488372C412.0395348837194 495.8441860465119 393.4162790697656 521.4511627906971 365.4813953488357 530.7627906976747V628.5348837209302H644.8302325581379V530.7627906976747C616.895348837208 521.4511627906984 598.2720930232542 495.8441860465119 598.2720930232542 465.5813953488372C598.2720930232542 426.0069767441863 628.534883720929 395.7441860465116 668.1093023255798 395.7441860465116S737.9465116279054 426.0069767441863 737.9465116279054 465.5813953488372C737.9465116279054 486.5325581395343 728.6348837209285 505.1558139534881 714.6674418604636 516.7953488372091V628.5348837209302H710.0116279069767zM710.0116279069767 698.3720930232557V768.2093023255813C710.0116279069767 884.6046511627907 616.8953488372093 977.720930232558 500.5 977.720930232558S290.9883720930233 884.6046511627907 290.9883720930233 768.2093023255813V698.3720930232557H221.1511627906977C169.9372093023259 698.3720930232557 123.3790697674421 656.4697674418602 116.3953488372093 605.2558139534883L46.5581395348837 93.1162790697674C39.5744186046509 41.9023255813956 76.8209302325584 0 128.0348837209302 0H872.9651162790698C924.1790697674415 0 961.4255813953492 41.9023255813956 954.4418604651162 93.1162790697674L884.6046511627907 605.2558139534883C877.6209302325578 656.4697674418602 831.0627906976741 698.3720930232557 779.8488372093024 698.3720930232557H710.0116279069767zM360.8255813953488 698.3720930232557V768.2093023255813C360.8255813953488 845.0302325581398 423.6790697674416 907.8837209302326 500.5 907.8837209302326S640.1744186046511 845.0302325581398 640.1744186046511 768.2093023255813V698.3720930232557H360.8255813953488z" />
    <glyph glyph-name="finance"
      unicode="&#xEA23;"
      horiz-adv-x="1001" d=" M502.8279069767442 975.393023255814C239.7744186046512 975.393023255814 27.9348837209303 763.553488372093 27.9348837209303 500.5S239.7744186046513 25.6069767441861 502.8279069767442 25.6069767441861S977.7209302325582 237.4465116279071 977.7209302325582 500.5S763.5534883720929 975.393023255814 502.8279069767442 975.393023255814zM502.8279069767442 104.7558139534883C284.0046511627907 104.7558139534883 107.0837209302326 281.6767441860466 107.0837209302326 500.5C107.0837209302326 719.3232558139534 284.0046511627907 896.2441860465117 502.8279069767442 896.2441860465117C721.6511627906976 896.2441860465117 898.5720930232559 719.3232558139534 898.5720930232559 500.5C898.5720930232559 281.6767441860466 719.3232558139534 104.7558139534883 502.8279069767442 104.7558139534883z M551.7139534883721 707.6837209302325C523.7790697674419 735.6186046511627 479.5488372093023 735.6186046511627 453.9418604651163 707.6837209302325L295.6441860465116 549.3860465116279C267.7093023255814 521.4511627906977 267.7093023255814 477.2209302325581 295.6441860465116 451.6139534883721L453.9418604651163 293.3162790697675C481.8767441860465 265.3813953488373 526.1069767441861 265.3813953488373 551.7139534883721 293.3162790697675L710.0116279069767 451.6139534883721C737.946511627907 479.5488372093023 737.946511627907 523.7790697674419 710.0116279069767 549.3860465116279L551.7139534883721 707.6837209302325zM500.5 344.5302325581396L344.5302325581396 500.5L500.5 656.4697674418604L656.4697674418604 500.5L500.5 344.5302325581396z" />
    <glyph glyph-name="ability"
      unicode="&#xEA24;"
      horiz-adv-x="1072.5" d=" M589.875 546.9749999999983H822.25C850.8500000000004 546.9749999999983 875.875 571.999999999998 875.875 600.5999999999983C875.875 629.1999999999988 850.8500000000004 654.2249999999983 822.25 654.2249999999983H718.5749999999998L832.9749999999993 793.6499999999976C850.8499999999993 815.0999999999983 847.2749999999996 850.8499999999983 825.8249999999998 868.7249999999983C804.375 886.5999999999983 768.625 883.0249999999976 750.75 861.5749999999988L586.3000000000002 661.374999999998C582.7250000000004 657.7999999999972 582.7250000000004 657.7999999999972 582.7250000000004 654.2249999999983H482.625C482.625 657.7999999999992 479.0499999999992 657.7999999999992 479.0499999999992 661.374999999998L314.5999999999984 861.5749999999988C296.7249999999984 883.0249999999996 260.9749999999984 886.5999999999983 239.5249999999976 868.7249999999983C218.0749999999968 850.8499999999983 214.499999999998 815.0999999999983 232.374999999998 793.6499999999976L346.7749999999976 654.2249999999983H253.8249999999968C225.2249999999964 654.2249999999983 200.1999999999968 629.1999999999988 200.1999999999968 600.5999999999983C200.1999999999968 571.999999999998 225.2249999999964 546.9749999999983 253.8249999999968 546.9749999999983H486.1999999999967V403.9749999999983H253.8249999999968C225.2249999999964 403.9749999999983 200.1999999999968 378.9499999999988 200.1999999999968 350.3499999999983C200.1999999999968 321.749999999998 225.2249999999964 296.7249999999983 253.8249999999968 296.7249999999983H486.1999999999967V171.5999999999983C486.1999999999967 142.999999999998 511.2249999999963 117.9749999999983 539.8249999999967 117.9749999999983C568.4249999999971 117.9749999999983 593.4499999999967 142.999999999998 593.4499999999967 171.5999999999983V296.7249999999983H825.8249999999967C854.4249999999971 296.7249999999983 879.4499999999967 321.749999999998 879.4499999999967 350.3499999999983C879.4499999999967 378.9499999999988 854.4249999999971 403.9749999999983 825.8249999999967 403.9749999999983H593.4499999999967V546.9749999999983z" />
    <glyph glyph-name="behavioral"
      unicode="&#xEA25;"
      horiz-adv-x="1072.5" d=" M461.1749999999992 382.5249999999997L361.0749999999988 482.625C346.7749999999996 496.9249999999992 325.3249999999988 496.9249999999992 311.0249999999996 482.625C296.7250000000004 468.3250000000008 296.7250000000004 446.875 311.0249999999996 432.5750000000009L436.1499999999996 307.4500000000009C436.1499999999996 307.4500000000009 436.1499999999996 307.4500000000009 436.1499999999996 307.4500000000009S436.1499999999996 307.4500000000009 436.1499999999996 307.4500000000009C450.4499999999988 293.1500000000017 471.8999999999996 293.1500000000017 486.1999999999998 307.4500000000009L765.0500000000002 586.3000000000012C779.3500000000004 600.6000000000004 779.3500000000004 622.0500000000012 765.0500000000002 636.3500000000004C750.75 650.6499999999996 729.3000000000002 650.6499999999996 715 636.3500000000004L461.1749999999992 382.5249999999997zM750.75 893.75H858C918.7749999999996 893.75 965.25 847.2749999999996 965.25 786.5V214.5C965.25 153.7250000000004 918.7749999999996 107.25 858 107.25H214.5C153.7250000000004 107.25 107.25 153.7250000000004 107.25 214.5V786.5C107.25 847.2749999999996 153.7250000000004 893.75 214.5 893.75H321.75V786.5C321.75 765.0499999999992 336.0499999999992 750.75 357.5 750.75C378.9500000000009 750.75 393.25 765.0499999999992 393.25 786.5V893.75H679.25V786.5C679.25 765.0499999999992 693.5500000000002 750.75 715 750.75C736.4499999999998 750.75 750.75 765.0499999999992 750.75 786.5V893.75z" />
    <glyph glyph-name="consumer"
      unicode="&#xEA26;"
      horiz-adv-x="1072.5" d=" M922.3500000000004 643.5C918.7750000000005 682.8250000000008 883.0250000000007 715 843.7000000000008 715H768.625000000001V743.6000000000004C768.625000000001 872.3000000000012 664.9500000000008 975.9750000000004 536.250000000001 975.9750000000004C407.5500000000012 975.9750000000004 303.875 872.3000000000012 303.875 743.6000000000004V715H228.7999999999992C189.4749999999984 715 153.7249999999984 682.8250000000008 150.1499999999996 643.5L96.5249999999996 114.3999999999996C92.9499999999988 75.0749999999988 121.5499999999992 42.8999999999996 160.875 42.8999999999996H911.625C950.9499999999998 42.8999999999996 979.5500000000002 75.0749999999988 975.9750000000004 114.3999999999996L922.3500000000004 643.5zM375.375 736.4499999999988C375.375 825.8249999999988 446.875 897.3249999999988 536.25 897.3249999999988C625.625 897.3249999999988 697.125 825.8249999999988 697.125 736.4499999999988V711.4249999999992H375.375V736.4499999999988zM336.0499999999992 411.125C300.2999999999992 411.125 268.125 439.7250000000004 268.125 479.0499999999992S296.7250000000004 546.9749999999983 336.0499999999992 546.9749999999983C371.7999999999992 546.9749999999983 403.9749999999984 518.374999999998 403.9749999999984 479.0499999999992S371.7999999999992 411.125 336.0499999999992 411.125zM729.3000000000002 411.125C693.5500000000002 411.125 661.375 439.7250000000004 661.375 479.0499999999992S689.9750000000004 546.9749999999983 729.3000000000002 546.9749999999983C765.0500000000002 546.9749999999983 797.2250000000004 518.374999999998 797.2250000000004 479.0499999999992S765.0500000000002 411.125 729.3000000000002 411.125z" />
    <glyph glyph-name="history"
      unicode="&#xEA27;"
      horiz-adv-x="1072.5" d=" M858 933.0749999999988H214.5C175.1749999999992 933.0749999999988 143 900.8999999999996 143 861.5749999999988V139.4249999999992C143 100.0999999999983 175.1749999999992 67.9249999999992 214.5 67.9249999999992H858C897.3249999999998 67.9249999999992 929.5 100.0999999999983 929.5 139.4249999999992V861.5749999999988C929.5 900.8999999999996 897.3249999999998 933.0749999999988 858 933.0749999999988zM286 825.8249999999988H454.0249999999996H525.5249999999996V597.0249999999996C525.5249999999996 586.2999999999992 518.375 582.7250000000004 511.2249999999994 589.875L407.5499999999992 650.6499999999996L303.875 589.875C296.7250000000004 586.2999999999992 289.5750000000009 589.875 289.5750000000009 597.0249999999996V825.8249999999988zM750.75 289.5749999999988H321.75C300.2999999999992 289.5749999999988 286 303.874999999998 286 325.3249999999988C286 346.7749999999997 300.2999999999992 361.0749999999988 321.75 361.0749999999988H750.75C772.1999999999998 361.0749999999988 786.5 346.7749999999997 786.5 325.3249999999988C786.5 307.4499999999988 768.625 289.5749999999988 750.75 289.5749999999988z" />
    <glyph glyph-name="idstyle"
      unicode="&#xEA28;"
      horiz-adv-x="1072.5" d=" M632.7749999999996 539.8249999999988C675.6749999999992 586.2999999999992 700.6999999999998 647.0749999999988 700.6999999999998 714.999999999998C700.6999999999998 861.5749999999988 582.7249999999993 979.5499999999972 436.1499999999996 979.5499999999972C289.5749999999988 979.5499999999972 171.6000000000004 861.5749999999967 171.6000000000004 714.999999999998C171.6000000000004 614.8999999999976 228.8000000000012 525.5249999999976 314.6000000000004 479.0499999999971C146.5750000000008 425.4249999999971 21.4500000000008 264.5499999999971 21.4500000000008 78.6499999999976H546.9750000000004C504.0750000000008 132.2749999999976 475.4750000000004 200.1999999999968 475.4750000000004 271.6999999999968C475.4750000000004 389.6749999999992 539.8249999999998 486.1999999999988 632.7749999999996 539.8249999999988zM800.8000000000002 21.4499999999988C940.2250000000004 21.4499999999988 1054.625 135.8499999999983 1054.625 275.2749999999997C1054.625 414.6999999999988 940.2250000000004 529.1000000000004 800.8000000000002 529.1000000000004S546.9750000000004 414.7000000000009 546.9750000000004 275.2749999999997C550.5500000000002 135.8499999999983 661.375 21.4499999999988 800.8000000000002 21.4499999999988zM768.625 375.375L822.25 232.375L879.4499999999998 375.375L943.8000000000002 375.375L858 168.0249999999996H782.9250000000002L779.3500000000004 178.75L700.7000000000008 375.375H768.625z" />
    <glyph glyph-name="success-pay"
      unicode="&#xEA29;"
      horiz-adv-x="1183" d=" M1064.7 828.1C1037.3999999999999 855.4 996.45 855.4 969.1499999999997 828.1L468.6499999999999 327.6L259.3499999999999 536.9C232.0499999999999 564.1999999999999 191.0999999999999 564.1999999999999 163.7999999999999 536.9C136.4999999999999 509.6 136.4999999999999 468.65 163.7999999999999 441.35L423.1499999999999 182C450.4499999999999 154.6999999999999 491.3999999999999 154.6999999999999 518.6999999999998 182L1064.7 728C1092 759.8499999999999 1092 805.3499999999999 1064.7 828.1z" />
    <glyph glyph-name="close-pay"
      unicode="&#xEA2A;"
      horiz-adv-x="1001" d=" M486.5972222222222 497.7194444444444L792.4583333333334 803.5805555555555C803.5805555555555 814.7027777777778 800.8000000000001 831.3861111111112 792.4583333333334 842.5083333333333C781.3361111111112 853.6305555555556 764.6527777777778 853.6305555555556 753.5305555555557 842.5083333333333L447.6694444444446 536.6472222222222L141.8083333333334 842.5083333333333C130.6861111111112 853.6305555555556 114.0027777777778 850.85 102.8805555555556 842.5083333333333C91.7583333333334 831.3861111111112 91.7583333333334 814.7027777777778 102.8805555555556 803.5805555555555L408.7416666666668 497.7194444444444L102.8805555555557 191.8583333333332C91.7583333333334 180.7361111111111 94.538888888889 164.0527777777777 102.8805555555557 152.9305555555556C114.0027777777779 141.8083333333333 130.6861111111112 141.8083333333333 141.8083333333334 152.9305555555556L447.6694444444446 458.7916666666666L753.5305555555557 152.9305555555556C764.6527777777778 141.8083333333333 781.3361111111112 144.5888888888889 792.4583333333334 152.9305555555556C803.5805555555555 164.0527777777777 803.5805555555555 180.7361111111111 792.4583333333334 191.8583333333332L486.5972222222222 497.7194444444444z" />
    <glyph glyph-name="slice"
      unicode="&#xEA2B;"
      horiz-adv-x="1001" d=" M37.5375 988.4875V882.13125L813.3125 638.1374999999999L43.79375 394.1437500000001V281.53125L982.23125 575.5749999999999V688.1875L37.5375 988.4875zM975.975 456.7062500000001L37.5375 162.6625000000001V62.5625L975.975 356.60625V456.7062500000001z" />
    <glyph glyph-name="shiming"
      unicode="&#xEA2C;"
      horiz-adv-x="1001" d=" M705.284125 227.5H295.715875C289.527875 227.5 284.375 222.4040000000001 284.375 216.125C284.375 209.8005000000001 289.4482500000001 204.75 295.715875 204.75H705.284125C711.472125 204.75 716.625 209.8459999999999 716.625 216.125C716.625 222.4495 711.55175 227.5 705.284125 227.5z M477.75 773.5C477.75 760.9355219413494 487.9355219413495 750.75 500.5 750.75C513.0644780586506 750.75 523.25 760.9355219413494 523.25 773.5C523.25 786.0644780586506 513.0644780586506 796.25 500.5 796.25C487.9355219413495 796.25 477.75 786.0644780586506 477.75 773.5z M204.75 773.5C204.75 760.9355219413494 214.9355219413495 750.75 227.5 750.75C240.0644780586506 750.75 250.25 760.9355219413494 250.25 773.5C250.25 786.0644780586506 240.0644780586506 796.25 227.5 796.25C214.9355219413495 796.25 204.75 786.0644780586506 204.75 773.5z M887.147625 1001H113.852375C51.016875 1001 0 950.028625 0 887.147625V113.8523750000001C0 51.016875 50.971375 0 113.852375 0H887.147625C949.983125 0 1001 50.971375 1001 113.8523750000001V887.147625C1001 949.983125 950.028625 1001 887.147625 1001zM978.25 113.8523750000001C978.25 63.5521250000001 937.4365 22.75 887.147625 22.75H113.852375C63.552125 22.75 22.75 63.5635 22.75 113.8523750000001V887.147625C22.75 937.447875 63.5635 978.25 113.852375 978.25H887.147625C937.447875 978.25 978.25 937.4365 978.25 887.147625V113.8523750000001z M750.75 773.5C750.75 760.9355219413494 760.9355219413494 750.75 773.5 750.75C786.0644780586506 750.75 796.25 760.9355219413494 796.25 773.5C796.25 786.0644780586506 786.0644780586506 796.25 773.5 796.25C760.9355219413494 796.25 750.75 786.0644780586506 750.75 773.5z M643.972875 531.3035C621.859875 531.3035 543.9979999999999 693.7726250000001 501.1825 693.875C458.355625 693.98875 391.106625 531.3035 356.33325 531.3035S265.78825 693.30625 204.75 693.875C221.732875 569.512125 245.6658750000001 329.53375 245.6658750000001 329.53375C248.1911250000001 304.7135 270.634 284.375 295.7727500000001 284.375H705.22725C730.354625 284.375 752.7520000000001 304.6225000000001 755.2090000000001 329.5906250000001C755.2090000000001 329.5906250000001 776.7532500000002 553.5074999999999 796.2386250000001 693.875C738.39675 692.601 666.085875 531.3035 643.972875 531.3035zM757.7797499999999 569.7168750000001C751.751 517.6535 745.7449999999999 461.89325 740.012 406.1330000000001C738.01 386.624875 736.1786249999999 368.5045 734.57475 352.23825C734.0173749999999 346.5393750000001 733.516875 341.488875 733.0846250000001 337.13225C732.6523750000001 332.707375 732.6523750000001 332.707375 732.561375 331.76325C731.264625 318.511375 718.6725 307.125 705.22725 307.125H295.77275C282.35025 307.125 269.65575 318.591 268.302125 331.8428750000001C268.2225 332.6505 268.2225 332.6505 267.813 336.72275C267.414875 340.7267500000001 266.937125 345.3791250000001 266.4025000000001 350.6230000000001C264.8782500000001 365.5811250000001 263.1720000000001 382.2568750000001 261.3065000000001 400.2066250000001C255.971625 451.4965000000001 250.45475 502.7863750000001 245.063 550.6751250000001C243.163375 567.5328750000001 241.30925 583.6967500000001 239.512 599.087125C237.271125 618.174375 235.132625 635.93075 233.1078750000001 652.2311250000001C243.81175 640.5490000000001 256.381125 623.3613750000002 271.089 600.3497500000001C274.899625 594.3892500000001 287.753375 573.9256250000001 289.891875 570.5586250000001C297.22875 559.013 302.791125 550.6410000000001 308.114625 543.3268750000001C324.8245 520.3721250000001 338.065 508.5648750000001 356.33325 508.5648750000001C374.2375 508.5648750000001 388.080875 520.2925000000001 405.552875 542.7467500000001C415.71075 555.8052500000001 419.976375 562.1638750000002 444.7625 600.1791250000001C449.24425 607.0496250000001 452.634 612.2025000000001 455.921375 617.1278750000001C479.6041250000001 652.5268750000002 496.848625 671.1591250000001 501.11425 671.1477500000001C505.152375 671.1363750000002 521.828125 655.1886250000002 542.8263750000001 626.4553750000002C548.5025 618.6976250000001 554.474375 610.1436250000002 561.4813750000001 599.8265000000001C564.4843750000001 595.4016250000002 567.510125 590.8971250000002 571.605125 584.7887500000002C574.09625 581.0577500000002 574.09625 581.0577500000002 576.576 577.3608750000001C578.5438750000001 574.4261250000002 580.022625 572.2080000000001 581.4558750000001 570.0695000000002C589.2705 558.4328750000002 594.8101250000001 550.3907500000003 599.9402500000001 543.3382500000001C618.1516250000001 518.2905000000002 627.6270000000001 508.5648750000001 643.972875 508.5648750000001C660.4893750000001 508.5648750000001 669.41875 517.9606250000002 687.6187500000001 543.5202500000001C693.8522500000001 552.2790000000002 719.7986250000001 591.0791250000001 725.7250000000001 599.6331250000001C741.9457500000002 622.9973750000001 755.4365 640.1622500000001 767.78975 652.4131250000002C764.55925 627.137875 761.215 599.451125 757.7797499999999 569.7168750000001z" />
    <glyph glyph-name="elementary"
      unicode="&#xEA30;"
      horiz-adv-x="1001" d=" M500.5 796.25C368.57275 796.25 261.625 689.30225 261.625 557.375S368.57275 318.5 500.5 318.5S739.375 425.4477500000001 739.375 557.375S632.42725 796.25 500.5 796.25zM500.5 341.25C381.142125 341.25 284.375 438.017125 284.375 557.375S381.142125 773.5 500.5 773.5S716.625 676.732875 716.625 557.375S619.857875 341.25 500.5 341.25z M692.635125 343.854875C691.201875 349.974625 685.07075 353.7625000000001 678.962375 352.317875C672.842625 350.8846250000001 669.05475 344.7535000000001 670.499375 338.645125L695.12625 233.9951250000001C698.641125 219.0483750000001 695.4675 216.60275 681.828875 223.74625C681.38525 224.0192500000001 679.713125 224.9747500000001 677.33575 226.2942500000001C673.42275 228.47825 668.941 230.9125000000002 663.9815 233.5173750000002C649.831 240.9793750000003 634.5885 248.4300000000001 618.834125 255.3915000000002C599.9175 263.7521250000001 581.524125 270.8387500000003 564.0635 276.2418750000002C540.1873750000001 283.6470000000002 518.8365 287.6851250000001 500.511375 287.6851250000001C482.1862500000001 287.6851250000001 460.8353750000001 283.6470000000002 436.95925 276.2418750000002C419.4986250000001 270.8273750000002 401.10525 263.7407500000001 382.1886250000001 255.3915000000002C366.4228750000001 248.4300000000002 351.19175 240.9680000000002 337.0412500000001 233.5173750000002C332.0817500000001 230.9011250000001 327.611375 228.4782500000001 323.687 226.2942500000001C321.3210000000001 224.9747500000001 319.6488750000001 224.0192500000001 318.7502500000001 223.4960000000001C305.6007500000001 216.4662500000002 302.37025 218.9573750000001 305.907875 233.9951250000002L330.53475 338.6451250000001C331.979375 344.7648750000002 328.180125 350.8846250000002 322.07175 352.3178750000002C315.952 353.7625000000002 309.83225 349.9632500000002 308.399 343.8548750000001L283.772125 239.2048750000002C275.7527500000001 205.1367500000001 299.0487500000001 187.1642500000001 329.8522500000001 203.6352500000002C330.9897500000001 204.2950000000003 332.5367500000001 205.1708750000003 334.7776250000001 206.4221250000003C338.5427500000001 208.5265000000003 342.8538750000001 210.8697500000003 347.6541250000001 213.3950000000002C361.3723750000001 220.6181250000003 376.1485000000001 227.8526250000002 391.3910000000001 234.5866250000003C409.5568750000001 242.6173750000003 427.1540000000001 249.3855000000002 443.7046250000001 254.5156250000001C465.5901250000001 261.2951250000002 484.8138750000001 264.9351250000001 500.52275 264.9351250000001S535.46675 261.2951250000002 557.340875 254.5156250000001C573.880125 249.3855000000002 591.4886250000001 242.6060000000002 609.6545000000001 234.5866250000003C624.9083750000001 227.8526250000002 639.6845000000001 220.6181250000003 653.391375 213.3950000000002C658.191625 210.8697500000003 662.5027500000001 208.5265000000003 666.267875 206.4221250000003C668.5087500000001 205.1708750000003 670.05575 204.2950000000003 670.82925 203.8400000000002C702.144625 187.4372500000003 725.2700000000001 205.2391250000003 717.273375 239.2048750000002L692.635125 343.854875z M887.147625 1001H113.852375C51.016875 1001 0 950.028625 0 887.147625V113.8523750000001C0 51.016875 50.971375 0 113.852375 0H887.147625C949.983125 0 1001 50.971375 1001 113.8523750000001V887.147625C1001 949.983125 950.028625 1001 887.147625 1001zM978.25 113.8523750000001C978.25 63.5521250000001 937.4365 22.75 887.147625 22.75H113.852375C63.552125 22.75 22.75 63.5635 22.75 113.8523750000001V887.147625C22.75 937.447875 63.5635 978.25 113.852375 978.25H887.147625C937.447875 978.25 978.25 937.4365 978.25 887.147625V113.8523750000001z M500.5 739.375C399.979125 739.375 318.5 657.8958749999999 318.5 557.375S399.979125 375.375 500.5 375.375S682.5 456.854125 682.5 557.375S601.020875 739.375 500.5 739.375zM500.5 398.125C412.5485 398.125 341.25 469.4235 341.25 557.375S412.5485 716.625 500.5 716.625S659.75 645.3265 659.75 557.375S588.4515 398.125 500.5 398.125z" />
    <glyph glyph-name="advanced"
      unicode="&#xEA31;"
      horiz-adv-x="1001" d=" M759.2357499999999 720.936125C758.9968749999999 721.573125 758.8831249999998 722.278375 758.6215 722.904C757.654625 725.179 756.426125 727.283375 755.1179999999998 729.353625C754.8563749999998 729.763125 754.6971249999998 730.2295 754.4241249999998 730.627625C753.4686249999997 732.0495 752.2742499999998 733.278 751.1594999999996 734.57475C750.3746249999997 735.496125 749.7034999999997 736.5085 748.8503749999996 737.361625C748.2019999999997 738.01 747.4057499999997 738.5105 746.7118749999996 739.12475C745.2217499999996 740.44425 743.7657499999996 741.80925 742.1049999999996 742.924C741.7068749999996 743.197 741.2404999999997 743.35625 740.8309999999997 743.617875C738.7607499999997 744.9259999999999 736.6563749999996 746.165875 734.3813749999997 747.121375C733.8694999999998 747.3375 733.3007499999998 747.4171249999999 732.7888749999997 747.621875C727.7724999999997 749.532875 722.3807499999998 750.7045 716.6932499999998 750.7045L648.4432499999998 750.738625V727.9545H716.6818749999998C724.5192499999998 727.9545 731.4466249999998 723.961875 735.5416249999998 717.910375C737.9986249999997 714.2817500000001 739.4318749999998 709.91375 739.4318749999998 705.22725V593.25175C739.4318749999998 563.3810000000001 712.9167499999998 536.28575 677.4267499999997 537.2185C676.1868749999998 537.2526250000001 673.5819999999998 537.593875 670.4538749999998 538.1626249999999C669.1002499999997 538.412875 667.6442499999998 538.708625 666.1427499999999 539.049875C665.6649999999997 539.163625 665.1872499999997 539.2660000000001 664.7094999999998 539.3797500000001C662.8212499999998 539.83475 660.8874999999998 540.3580000000001 659.0219999999998 540.9495000000001C658.7489999999998 541.0405000000001 658.4987499999999 541.142875 658.2257499999998 541.233875C656.6332499999999 541.7571250000001 655.1317499999999 542.33725 653.7326249999998 542.962875C653.2889999999998 543.15625 652.8567499999998 543.3496250000001 652.4472499999998 543.554375C650.8888749999998 544.327875 649.4669999999998 545.1355000000001 648.4432499999998 546.0227500000001V523.2727500000001C648.4432499999998 521.8736250000001 648.4204999999998 520.463125 648.3636249999998 519.052625C654.9838749999999 516.982375 662.2524999999998 515.788 669.8396249999998 515.116875C672.3534999999998 514.775625 674.7536249999998 514.525375 676.8466249999998 514.4685C679.8382499999998 514.3888750000001 682.7957499999999 514.4685 685.7077499999999 514.684625C703.4299999999998 515.90175 718.536 522.2035000000001 730.5821249999999 531.46275C730.8778749999998 531.6788750000001 731.1622499999999 531.895 731.4466249999998 532.1225C732.7774999999998 533.169 734.0628749999998 534.2496249999999 735.3027499999998 535.37575C736.4857499999998 536.410875 737.6232499999998 537.46875 738.7379999999998 538.5607500000001C739.0564999999999 538.87925 739.363625 539.19775 739.6707499999998 539.5162500000001C751.9443749999997 551.9605000000001 760.0433749999997 568.113 761.7951249999998 585.9490000000001C762.0567499999996 588.3832500000001 762.1932499999997 590.8175000000001 762.1932499999997 593.2403750000001V705.25C762.1932499999997 708.378125 761.8747499999996 711.438 761.2718749999997 714.384125C760.8055 716.659125 760.032 718.809 759.2357499999999 720.936125z M887.147625 1001H113.852375C51.016875 1001 0 950.028625 0 887.147625V113.8523750000001C0 51.016875 50.971375 0 113.852375 0H887.147625C949.983125 0 1001 50.971375 1001 113.8523750000001V887.147625C1001 949.983125 950.028625 1001 887.147625 1001zM978.25 113.8523750000001C978.25 63.5521250000001 937.4365 22.75 887.147625 22.75H113.852375C63.552125 22.75 22.75 63.5635 22.75 113.8523750000001V887.147625C22.75 937.447875 63.5635 978.25 113.852375 978.25H887.147625C937.447875 978.25 978.25 937.4365 978.25 887.147625V113.8523750000001z M648.375 523.341V750.784125C648.375 775.8546249999999 627.979625 796.25 602.818125 796.25H398.1818750000001C372.952125 796.25 352.625 775.84325 352.625 750.659V750.715875H352.613625V750.761375L284.363625 750.715875C281.224125 750.715875 278.16425 750.397375 275.20675 749.7831249999999C275.058875 749.749 274.93375 749.68075 274.785875 749.658C271.97625 749.055125 269.257625 748.22475 266.664125 747.13275C265.936125 746.825625 265.299125 746.35925 264.5938750000001 746.006625C262.660125 745.0625 260.7150000000001 744.1297500000001 258.9405000000001 742.935375C257.9736250000001 742.275625 257.154625 741.433875 256.2446250000001 740.705875C254.8796250000001 739.613875 253.4463750000001 738.6015 252.2065000000001 737.373C251.6263750000001 736.792875 251.1941250000001 736.087625 250.6367500000001 735.473375C249.237625 733.915 247.81575 732.3679999999999 246.63275 730.627625C246.5986250000001 730.57075 246.575875 730.5025 246.530375 730.4456250000001C244.9492500000001 728.0796250000001 243.5615 725.56575 242.435375 722.904C242.1737500000001 722.278375 242.06 721.573125 241.8211250000001 720.936125C241.0248750000001 718.797625 240.251375 716.659125 239.7850000000001 714.384125C239.1935 711.438 238.875 708.378125 238.875 705.25V593.2745C238.875 590.8629999999999 239.0115 588.4401250000001 239.273125 586.01725C241.53675 562.85775 254.561125 542.7012500000001 273.625625 529.722375C273.91 529.529 274.183 529.3242500000001 274.467375 529.14225C276.105375 528.061625 277.80025 527.037875 279.517875 526.059625C280.34825 525.581875 281.16725 525.104125 282.020375 524.6491249999999C283.385375 523.9324999999999 284.7845 523.2955 286.183625 522.647125C287.35525 522.1125 288.504125 521.555125 289.72125 521.0659999999999C291.120375 520.4972499999999 292.553625 520.0194999999999 293.986875 519.5189999999999C295.18125 519.1094999999998 296.352875 518.6658749999999 297.581375 518.3018749999999C299.572 517.7103749999999 301.6195 517.2212499999998 303.678375 516.7662499999999C304.37225 516.6069999999999 305.0433750000001 516.4136249999999 305.748625 516.2771249999998C311.51575 515.12825 317.487625 514.49125 323.630125 514.49125C323.778 514.49125 323.925875 514.502625 324.07375 514.502625C324.130625 514.502625 324.176125 514.49125 324.233 514.49125C324.415 514.49125 324.631125 514.5253749999999 324.8245 514.5253749999999C334.40225 514.6505 344.23025 516.31125 352.807 519.7465C354.60425 452.918375 406.280875 394.485 489.295625 387.5690000000001C489.272875 387.284625 489.125 387.034375 489.125 386.7386250000001V227.5113750000001C489.125 227.5113750000001 489.125 227.5113750000001 489.125 227.5113750000001C489.125 227.5113750000001 489.125 227.5113750000001 489.125 227.5113750000001H420.886375C414.561875 227.5 409.5 222.4040000000001 409.5 216.125C409.5 209.8005000000001 414.596 204.75 420.886375 204.75H580.113625C586.438125 204.75 591.5 209.8459999999999 591.5 216.125C591.5 222.4495 586.404 227.5 580.1136250000001 227.5H511.875C511.875 227.5 511.875 227.5113750000001 511.875 227.5113750000001V307.125V386.7386250000001C511.875 386.8637500000001 511.80675 386.9661250000001 511.80675 387.0912500000001C596.1865 390.77675 648.375 459.925375 648.375 523.341zM352.625 546.056875C351.806 545.1355 350.73675 544.305125 349.565125 543.5430000000001C349.2125000000001 543.3155 348.8257500000001 543.099375 348.450375 542.8832500000001C347.5290000000001 542.3486250000001 346.55075 541.8595 345.4928750000001 541.4045000000001C340.6130000000001 539.3115 334.6297500000001 538.06025 329.2038750000001 537.5483750000001C327.2360000000001 537.3663750000001 325.325 537.24125 323.6187500000001 537.24125C288.1287500000001 537.24125 261.613625 563.392375 261.613625 593.2745V705.25C261.613625 717.73975 271.8397500000001 727.965875 284.363625 727.965875L352.613625 728.011375V546.056875zM501.0346249999999 409.5455C425.9937500000001 411.52475 375.375 460.8695 375.375 523.341V750.659C375.375 763.308 385.555625 773.5 398.1818750000001 773.5H602.80675C615.41025 773.5 625.625 763.296625 625.625 750.784125V523.3409999999999C625.625 462.34825 572.105625 407.6800000000001 501.0346249999999 409.5455z" />
    <glyph glyph-name="super"
      unicode="&#xEA32;"
      horiz-adv-x="1001" d=" M705.284125 227.5H295.715875C289.527875 227.5 284.375 222.4040000000001 284.375 216.125C284.375 209.8005000000001 289.4482500000001 204.75 295.715875 204.75H705.284125C711.472125 204.75 716.625 209.8459999999999 716.625 216.125C716.625 222.4495 711.55175 227.5 705.284125 227.5z M477.75 773.5C477.75 760.9355219413494 487.9355219413495 750.75 500.5 750.75C513.0644780586506 750.75 523.25 760.9355219413494 523.25 773.5C523.25 786.0644780586506 513.0644780586506 796.25 500.5 796.25C487.9355219413495 796.25 477.75 786.0644780586506 477.75 773.5z M204.75 773.5C204.75 760.9355219413494 214.9355219413495 750.75 227.5 750.75C240.0644780586506 750.75 250.25 760.9355219413494 250.25 773.5C250.25 786.0644780586506 240.0644780586506 796.25 227.5 796.25C214.9355219413495 796.25 204.75 786.0644780586506 204.75 773.5z M887.147625 1001H113.852375C51.016875 1001 0 950.028625 0 887.147625V113.8523750000001C0 51.016875 50.971375 0 113.852375 0H887.147625C949.983125 0 1001 50.971375 1001 113.8523750000001V887.147625C1001 949.983125 950.028625 1001 887.147625 1001zM978.25 113.8523750000001C978.25 63.5521250000001 937.4365 22.75 887.147625 22.75H113.852375C63.552125 22.75 22.75 63.5635 22.75 113.8523750000001V887.147625C22.75 937.447875 63.5635 978.25 113.852375 978.25H887.147625C937.447875 978.25 978.25 937.4365 978.25 887.147625V113.8523750000001z M750.75 773.5C750.75 760.9355219413494 760.9355219413494 750.75 773.5 750.75C786.0644780586506 750.75 796.25 760.9355219413494 796.25 773.5C796.25 786.0644780586506 786.0644780586506 796.25 773.5 796.25C760.9355219413494 796.25 750.75 786.0644780586506 750.75 773.5z M643.972875 531.3035C621.859875 531.3035 543.9979999999999 693.7726250000001 501.1825 693.875C458.355625 693.98875 391.106625 531.3035 356.33325 531.3035S265.78825 693.30625 204.75 693.875C221.732875 569.512125 245.6658750000001 329.53375 245.6658750000001 329.53375C248.1911250000001 304.7135 270.634 284.375 295.7727500000001 284.375H705.22725C730.354625 284.375 752.7520000000001 304.6225000000001 755.2090000000001 329.5906250000001C755.2090000000001 329.5906250000001 776.7532500000002 553.5074999999999 796.2386250000001 693.875C738.39675 692.601 666.085875 531.3035 643.972875 531.3035zM757.7797499999999 569.7168750000001C751.751 517.6535 745.7449999999999 461.89325 740.012 406.1330000000001C738.01 386.624875 736.1786249999999 368.5045 734.57475 352.23825C734.0173749999999 346.5393750000001 733.516875 341.488875 733.0846250000001 337.13225C732.6523750000001 332.707375 732.6523750000001 332.707375 732.561375 331.76325C731.264625 318.511375 718.6725 307.125 705.22725 307.125H295.77275C282.35025 307.125 269.65575 318.591 268.302125 331.8428750000001C268.2225 332.6505 268.2225 332.6505 267.813 336.72275C267.414875 340.7267500000001 266.937125 345.3791250000001 266.4025000000001 350.6230000000001C264.8782500000001 365.5811250000001 263.1720000000001 382.2568750000001 261.3065000000001 400.2066250000001C255.971625 451.4965000000001 250.45475 502.7863750000001 245.063 550.6751250000001C243.163375 567.5328750000001 241.30925 583.6967500000001 239.512 599.087125C237.271125 618.174375 235.132625 635.93075 233.1078750000001 652.2311250000001C243.81175 640.5490000000001 256.381125 623.3613750000002 271.089 600.3497500000001C274.899625 594.3892500000001 287.753375 573.9256250000001 289.891875 570.5586250000001C297.22875 559.013 302.791125 550.6410000000001 308.114625 543.3268750000001C324.8245 520.3721250000001 338.065 508.5648750000001 356.33325 508.5648750000001C374.2375 508.5648750000001 388.080875 520.2925000000001 405.552875 542.7467500000001C415.71075 555.8052500000001 419.976375 562.1638750000002 444.7625 600.1791250000001C449.24425 607.0496250000001 452.634 612.2025000000001 455.921375 617.1278750000001C479.6041250000001 652.5268750000002 496.848625 671.1591250000001 501.11425 671.1477500000001C505.152375 671.1363750000002 521.828125 655.1886250000002 542.8263750000001 626.4553750000002C548.5025 618.6976250000001 554.474375 610.1436250000002 561.4813750000001 599.8265000000001C564.4843750000001 595.4016250000002 567.510125 590.8971250000002 571.605125 584.7887500000002C574.09625 581.0577500000002 574.09625 581.0577500000002 576.576 577.3608750000001C578.5438750000001 574.4261250000002 580.022625 572.2080000000001 581.4558750000001 570.0695000000002C589.2705 558.4328750000002 594.8101250000001 550.3907500000003 599.9402500000001 543.3382500000001C618.1516250000001 518.2905000000002 627.6270000000001 508.5648750000001 643.972875 508.5648750000001C660.4893750000001 508.5648750000001 669.41875 517.9606250000002 687.6187500000001 543.5202500000001C693.8522500000001 552.2790000000002 719.7986250000001 591.0791250000001 725.7250000000001 599.6331250000001C741.9457500000002 622.9973750000001 755.4365 640.1622500000001 767.78975 652.4131250000002C764.55925 627.137875 761.215 599.451125 757.7797499999999 569.7168750000001z" />
    <glyph glyph-name="rhombus"
      unicode="&#xEA33;"
      horiz-adv-x="1001" d=" M915.9738823529412 584.6428823529411L582.8764117647058 917.7403529411766C536.889294117647 963.7274705882352 462.3442352941175 963.7274705882352 416.3571176470589 917.7403529411766L83.2596470588235 584.6428823529411C37.2725294117647 538.6557647058823 37.2725294117647 464.1107058823529 83.2596470588235 418.1235882352942L416.3571176470589 85.0261176470589C462.3442352941176 39.039 536.8892941176471 39.039 582.8764117647058 85.0261176470589L915.9738823529412 418.1235882352942C961.961 464.1107058823529 961.961 538.6557647058823 915.9738823529412 584.6428823529411z" />
    <glyph glyph-name="noticeInfo"
      unicode="&#xEA34;"
      horiz-adv-x="1028.8055555555557" d=" M494.2715555555556 778.5555555555555H549.8826666666666V722.9444444444445H494.2715555555556V778.5555555555555z M522.0771111111111 1001C245.6620833333334 1001 21.5771111111111 776.9150277777778 21.5771111111111 500.5S245.6620833333334 0 522.0771111111111 0S1022.577111111111 224.0849722222221 1022.577111111111 500.5S798.4921388888889 1001 522.0771111111111 1001zM522.0771111111111 55.0549999999998C276.0535555555556 55.0549999999998 76.6321111111111 254.4764444444444 76.6321111111111 500.4999999999999S276.0813611111111 945.945 522.0771111111111 945.945S967.5221111111111 746.5235555555555 967.5221111111111 500.5S768.1006666666667 55.0549999999998 522.0771111111111 55.0549999999998z M522.7444444444445 653.9310555555555C507.4513888888889 653.9310555555555 495.2169444444446 641.5019722222223 495.2169444444446 626.1533055555556V237.6540833333334C495.2169444444446 222.222 507.5348055555557 209.8763333333334 522.7444444444445 209.8763333333334C538.0375 209.8763333333334 550.2719444444444 222.3054166666667 550.2719444444444 237.6540833333334V626.1533055555556C550.2719444444444 641.6131944444444 537.9540833333334 653.9310555555555 522.7444444444445 653.9310555555555z" />
    <glyph glyph-name="checkbox"
      unicode="&#xEA35;"
      horiz-adv-x="1001" d=" M770.213888888889 695.1388888888889C753.5305555555556 711.8222222222222 728.5055555555556 711.8222222222222 711.8222222222222 695.1388888888889L392.0583333333334 389.2777777777777L278.0555555555556 503.2805555555556C261.3722222222223 519.963888888889 236.3472222222223 519.963888888889 219.6638888888889 503.2805555555556C202.9805555555556 486.5972222222222 202.9805555555556 461.5722222222222 219.6638888888889 444.8888888888889L358.6916666666667 305.8611111111111C367.0333333333334 297.5194444444444 378.1555555555556 291.9583333333333 392.0583333333334 294.738888888889C403.1805555555556 294.738888888889 414.3027777777778 297.5194444444445 422.6444444444445 305.8611111111111L767.4333333333334 639.5277777777778C786.8972222222222 653.4305555555555 786.8972222222222 678.4555555555555 770.213888888889 695.1388888888889z" />
  </font>
</defs>
</svg>
